<svg width="104" height="103" viewBox="0 0 104 103" fill="none" xmlns="http://www.w3.org/2000/svg">
<path d="M75.2379 72.1322C71.6466 65.9522 64.9029 61.8001 57.2004 61.8001H46.8004C39.0979 61.8001 32.3541 65.9522 28.7629 72.1322C34.4829 78.441 42.7704 82.4001 52.0004 82.4001C61.2304 82.4001 69.5179 78.4249 75.2379 72.1322ZM10.4004 51.5001C10.4004 28.7435 29.0229 10.3 52.0004 10.3C74.9779 10.3 93.6004 28.7435 93.6004 51.5001C93.6004 74.2566 74.9779 92.7001 52.0004 92.7001C29.0229 92.7001 10.4004 74.2566 10.4004 51.5001ZM52.0004 54.0751C58.4679 54.0751 63.7004 48.8929 63.7004 42.4876C63.7004 36.0822 58.4679 30.9001 52.0004 30.9001C45.5329 30.9001 40.3004 36.0822 40.3004 42.4876C40.3004 48.8929 45.5329 54.0751 52.0004 54.0751Z" fill="#F3FAFF"/>
</svg>
