<svg width="228" height="155" viewBox="0 0 228 155" fill="none" xmlns="http://www.w3.org/2000/svg">
<g clip-path="url(#clip0_11_219)">
<path d="M150.369 61.2252C139.811 50.8716 125.348 44.4984 109.397 44.4984C108.143 44.4984 106.905 44.5364 105.675 44.62H105.644C83.259 46.0328 64.2843 60.0174 55.7161 79.5927C55.116 80.9601 54.5691 82.3426 54.0753 83.763C53.4069 85.6773 59.5976 85.3431 63.745 84.2264C63.745 84.2264 63.7475 84.2264 63.7526 84.2264C66.6618 83.444 69.7306 83.0262 72.8905 83.0262C73.2171 83.0262 73.5286 83.0262 73.8552 83.0414C73.8552 83.0414 73.8704 83.0414 73.878 83.0414C75.3516 83.0794 76.8024 83.2085 78.2229 83.4288H78.238C79.9775 83.163 81.7626 83.0262 83.5704 83.0262C85.044 83.0262 86.5024 83.1174 87.9381 83.2921C89.3661 83.1098 90.8245 83.0262 92.2981 83.0262C94.1591 83.0262 95.9822 83.1705 97.7672 83.4516C99.5523 83.1705 101.375 83.0262 103.236 83.0262C105.097 83.0262 106.768 83.1629 108.478 83.4136C110.179 83.1629 111.934 83.0262 113.711 83.0262C115.139 83.0262 116.552 83.1098 117.934 83.2769C119.317 83.1098 120.73 83.0262 122.158 83.0262C123.821 83.0262 125.447 83.1402 127.042 83.3605C128.637 83.1326 130.27 83.0262 131.926 83.0262C133.985 83.0262 135.998 83.2085 137.965 83.5428C139.925 83.2009 141.938 83.0262 143.996 83.0262C152.701 83.0262 165.569 86.2546 164.703 83.7706C161.702 75.1642 156.742 67.4693 150.369 61.2328V61.2252ZM99.4079 60.2301C99.2256 60.5947 98.7775 60.7998 98.3825 60.6859C97.9951 60.5795 97.7064 60.1693 97.7444 59.7667C97.7824 59.7743 97.8204 59.7971 97.866 59.8047C97.8736 59.3489 98.3445 58.9236 98.8079 58.9995C99.332 59.0907 99.6586 59.7591 99.4155 60.2301H99.4079Z" fill="#FEC931" stroke="#FEC931" stroke-miterlimit="10"/>
<path d="M71.9718 82.8819C68.5992 83.2237 65.2266 83.6187 61.8691 84.0669C64.7784 83.2845 67.8472 82.8667 71.0071 82.8667C71.3337 82.8667 71.6451 82.8667 71.9718 82.8819Z" stroke="#FEC931" stroke-miterlimit="10"/>
<path d="M14.926 135.25C12.7612 135.25 11.1736 134.976 10.1558 134.437C9.13793 133.898 8.58342 132.903 8.49227 131.459C8.31756 129.021 8.23401 126.408 8.23401 123.613C8.23401 118.941 8.46189 114.482 8.91764 110.228H8.21122C6.81357 110.228 5.30957 110.145 3.69163 109.97C2.38513 109.78 1.44323 109.119 0.865938 107.98C0.288646 106.848 0 105.572 0 104.166C0 102.997 0.159515 101.865 0.470949 100.756C0.782383 99.6467 1.21535 98.7351 1.75466 98.0135C2.29398 97.2919 2.90165 96.9272 3.58529 96.9272H28.8418C29.4875 96.9272 30.0572 97.2767 30.5509 97.9755C31.0446 98.6744 31.432 99.5555 31.7131 100.627C31.9941 101.698 32.1309 102.807 32.1309 103.961C32.1309 105.549 31.8194 106.962 31.2042 108.2C30.5889 109.438 29.5862 110.099 28.2114 110.19H27.2998C26.7909 110.19 25.3477 110.167 22.9626 110.114V110.638C22.9626 111.717 22.9853 113.16 23.0385 114.953C23.1449 117.672 23.198 120.81 23.198 124.365C23.198 126.841 23.1449 129.416 23.0385 132.105C23.0233 133.062 22.3549 133.829 21.0484 134.407C19.7419 134.984 17.6986 135.273 14.9336 135.273L14.926 135.25Z" fill="#ADD6F1"/>
<path d="M50.5585 135.25C47.353 135.25 44.5577 134.711 42.1649 133.64C39.7722 132.568 37.7897 131.133 36.2021 129.34C34.6146 127.547 33.4296 125.519 32.632 123.263C31.842 121.007 31.4395 118.69 31.4395 116.32C31.4395 113.95 31.842 111.535 32.6548 109.233C33.4676 106.931 34.6829 104.858 36.3009 103.012C37.9188 101.166 39.9469 99.6922 42.3624 98.5907C44.7855 97.4893 47.6112 96.9424 50.8319 96.9424C54.0526 96.9424 56.9011 97.4741 59.3166 98.5376C61.7321 99.601 63.7374 101.029 65.3402 102.814C66.9429 104.599 68.1431 106.62 68.9482 108.868C69.7534 111.117 70.1484 113.426 70.1484 115.796C70.1484 118.166 69.7306 120.582 68.9103 122.891C68.0823 125.2 66.8518 127.282 65.211 129.143C63.5703 130.996 61.527 132.477 59.0811 133.586C56.6352 134.695 53.7867 135.25 50.5433 135.25H50.5585ZM50.9534 122.412C52.3967 122.412 53.7032 121.85 54.8654 120.726C56.0275 119.602 56.6276 117.938 56.6808 115.743C56.6808 114.277 56.4301 113.084 55.9212 112.15C55.4123 111.216 54.759 110.532 53.9614 110.084C53.1563 109.643 52.3055 109.415 51.4016 109.415C49.9204 109.415 48.5759 109.962 47.3606 111.048C46.1452 112.135 45.5071 113.677 45.4388 115.659C45.4388 117.179 45.7046 118.432 46.2364 119.435C46.7681 120.437 47.4593 121.182 48.3025 121.668C49.1456 122.154 50.0343 122.397 50.9534 122.397V122.412Z" fill="#9CCEA6"/>
<path d="M93.1256 134.832C89.7074 134.832 86.7146 134.278 84.132 133.169C81.5494 132.06 79.3921 130.586 77.6451 128.748C75.9056 126.909 74.5915 124.836 73.7104 122.542C72.8292 120.24 72.3887 117.885 72.3887 115.485C72.3887 112.454 73.1179 109.552 74.5687 106.779C76.0271 104.007 78.2224 101.751 81.1696 100.011C84.2535 98.1958 88.1503 97.2766 92.8522 97.2386C95.4652 97.2386 98.1009 97.5273 100.76 98.1122C103.418 98.6971 105.234 99.5783 106.213 100.763C106.646 101.424 106.867 102.176 106.867 103.012C106.867 104.037 106.624 105.116 106.145 106.24C105.667 107.364 105.097 108.405 104.436 109.362C103.775 110.319 103.137 111.086 102.529 111.664C102.127 111.998 101.686 112.158 101.193 112.158C100.813 112.158 100.41 112.082 99.9923 111.937C99.5746 111.793 99.1796 111.626 98.815 111.451C96.5818 110.494 94.6372 110.015 92.9813 110.015C91.6064 110.031 90.467 110.296 89.5707 110.798C88.6744 111.307 88.0135 111.96 87.5806 112.773C87.1552 113.586 86.9425 114.444 86.9425 115.348C86.9425 116.723 87.4286 117.984 88.3933 119.123C89.358 120.263 90.7557 120.87 92.5863 120.939C93.3915 120.939 94.1814 120.855 94.9638 120.68C95.7462 120.506 96.5286 120.308 97.3034 120.096C98.0782 119.875 98.8605 119.685 99.6429 119.518C100.425 119.351 101.223 119.268 102.02 119.268C102.962 119.321 103.768 119.86 104.436 120.886C105.104 121.911 105.621 123.164 105.978 124.638C106.335 126.112 106.517 127.464 106.517 128.702C106.517 129.257 106.472 129.727 106.388 130.115C105.955 131.596 104.664 132.644 102.522 133.252C99.491 134.262 96.3539 134.787 93.1104 134.817L93.1256 134.832Z" fill="#FEC931"/>
<path d="M136.051 135.25C133.886 135.25 132.299 134.976 131.281 134.437C130.263 133.898 129.708 132.903 129.617 131.459C129.443 129.021 129.359 126.408 129.359 123.613C129.359 118.941 129.587 114.482 130.043 110.228H129.336C127.939 110.228 126.435 110.145 124.817 109.97C123.51 109.78 122.568 109.119 121.991 107.98C121.414 106.848 121.125 105.572 121.125 104.166C121.125 102.997 121.285 101.865 121.596 100.756C121.907 99.6467 122.34 98.7351 122.88 98.0135C123.419 97.2919 124.027 96.9272 124.71 96.9272H149.967C150.612 96.9272 151.182 97.2767 151.676 97.9755C152.17 98.6744 152.557 99.5555 152.838 100.627C153.119 101.698 153.256 102.807 153.256 103.961C153.256 105.549 152.944 106.962 152.329 108.2C151.714 109.438 150.711 110.099 149.336 110.19H148.425C147.916 110.19 146.473 110.167 144.088 110.114V110.638C144.088 111.717 144.11 113.16 144.164 114.953C144.27 117.672 144.323 120.81 144.323 124.365C144.323 126.841 144.27 129.416 144.164 132.105C144.148 133.062 143.48 133.829 142.173 134.407C140.867 134.984 138.824 135.273 136.059 135.273L136.051 135.25Z" fill="#F5A325"/>
<path d="M171.683 135.25C168.478 135.25 165.683 134.711 163.29 133.64C160.897 132.568 158.915 131.133 157.327 129.34C155.74 127.547 154.555 125.519 153.757 123.263C152.967 121.007 152.564 118.69 152.564 116.32C152.564 113.95 152.967 111.535 153.78 109.233C154.593 106.931 155.808 104.858 157.426 103.012C159.044 101.166 161.072 99.6922 163.487 98.5907C165.911 97.4893 168.736 96.9424 171.957 96.9424C175.178 96.9424 178.026 97.4741 180.442 98.5376C182.857 99.601 184.862 101.029 186.465 102.814C188.068 104.599 189.268 106.62 190.073 108.868C190.878 111.117 191.273 113.426 191.273 115.796C191.273 118.166 190.856 120.582 190.035 122.891C189.207 125.2 187.977 127.282 186.336 129.143C184.695 130.996 182.652 132.477 180.206 133.586C177.76 134.695 174.912 135.25 171.668 135.25H171.683ZM172.078 122.412C173.522 122.412 174.828 121.85 175.99 120.726C177.153 119.602 177.753 117.938 177.806 115.743C177.806 114.277 177.555 113.084 177.046 112.15C176.537 111.216 175.884 110.532 175.086 110.084C174.281 109.643 173.431 109.415 172.527 109.415C171.045 109.415 169.701 109.962 168.486 111.048C167.27 112.135 166.632 113.677 166.564 115.659C166.564 117.179 166.83 118.432 167.361 119.435C167.893 120.437 168.584 121.182 169.427 121.668C170.271 122.154 171.159 122.397 172.078 122.397V122.412Z" fill="#ADD6F1"/>
<path d="M214.243 134.832C210.825 134.832 207.832 134.278 205.249 133.169C202.667 132.06 200.509 130.586 198.762 128.748C197.023 126.909 195.709 124.836 194.828 122.542C193.946 120.24 193.506 117.885 193.506 115.485C193.506 112.454 194.235 109.552 195.686 106.779C197.144 104.007 199.34 101.751 202.287 100.011C205.371 98.1958 209.267 97.2766 213.969 97.2386C216.582 97.2386 219.218 97.5273 221.877 98.1122C224.535 98.6971 226.351 99.5783 227.331 100.763C227.764 101.424 227.984 102.176 227.984 103.012C227.984 104.037 227.741 105.116 227.262 106.24C226.784 107.364 226.214 108.405 225.553 109.362C224.892 110.319 224.254 111.086 223.647 111.664C223.244 111.998 222.803 112.158 222.31 112.158C221.93 112.158 221.527 112.082 221.11 111.937C220.692 111.793 220.297 111.626 219.932 111.451C217.699 110.494 215.754 110.015 214.098 110.015C212.724 110.031 211.584 110.296 210.688 110.798C209.792 111.307 209.131 111.96 208.698 112.773C208.272 113.586 208.06 114.444 208.06 115.348C208.06 116.723 208.546 117.984 209.511 119.123C210.475 120.263 211.873 120.87 213.703 120.939C214.509 120.939 215.299 120.855 216.081 120.68C216.863 120.506 217.646 120.308 218.421 120.096C219.195 119.875 219.978 119.685 220.76 119.518C221.543 119.351 222.34 119.268 223.138 119.268C224.08 119.321 224.885 119.86 225.553 120.886C226.222 121.911 226.738 123.164 227.095 124.638C227.452 126.112 227.634 127.464 227.634 128.702C227.634 129.257 227.589 129.727 227.505 130.115C227.072 131.596 225.781 132.644 223.639 133.252C220.608 134.262 217.471 134.787 214.228 134.817L214.243 134.832Z" fill="#9CCEA6"/>
<path d="M15.5182 153.663C14.7662 153.663 14.1054 153.572 13.5433 153.397C12.8976 153.207 12.5102 152.881 12.3963 152.425C12.2748 151.825 12.1836 151.118 12.1304 150.306C12.0773 149.493 12.0469 148.688 12.0469 147.875C12.0469 146.135 12.1304 145.102 12.3051 144.775C12.3963 144.608 12.533 144.487 12.7229 144.411C13.0647 144.289 13.4977 144.198 14.0218 144.122C14.5459 144.046 15.1004 144.016 15.6929 144.016C16.4981 144.016 17.2729 144.099 18.0173 144.267C18.7617 144.434 19.377 144.715 19.8479 145.117C20.3189 145.52 20.5695 146.059 20.5999 146.75C20.5999 147.214 20.486 147.601 20.2657 147.913C20.0454 148.232 19.734 148.498 19.339 148.718C19.6428 148.839 19.9239 148.991 20.1821 149.174C20.4404 149.356 20.6531 149.569 20.8126 149.819C20.9721 150.07 21.0557 150.374 21.0557 150.716C21.0329 151.301 20.8202 151.787 20.4404 152.174C20.053 152.554 19.5669 152.858 18.9896 153.078C18.4047 153.298 17.8046 153.45 17.1817 153.534C16.5589 153.625 16.012 153.663 15.5334 153.663H15.5182ZM15.936 147.723C16.2322 147.7 16.4525 147.624 16.5968 147.487C16.7412 147.351 16.8171 147.199 16.8171 147.032C16.8171 146.864 16.7412 146.705 16.5893 146.561C16.4373 146.416 16.2095 146.333 15.9056 146.31V146.667C15.9056 147.024 15.9056 147.373 15.9284 147.723H15.936ZM16.0272 151.004C16.3158 150.966 16.5361 150.89 16.6804 150.769C16.8247 150.647 16.9007 150.511 16.9007 150.366C16.9007 150.222 16.8247 150.085 16.6804 149.956C16.5285 149.827 16.3082 149.743 16.0044 149.705V150.245C16.0044 150.511 16.0044 150.761 16.0272 151.004Z" fill="#ADD6F1"/>
<path d="M23.6768 153.458C23.3805 153.458 23.0919 153.412 22.8108 153.329C22.5298 153.245 22.3019 153.109 22.1196 152.926C21.9373 152.744 21.831 152.508 21.8082 152.227C21.6638 150.268 21.5879 148.619 21.5879 147.29C21.5879 146.545 21.6259 145.983 21.7018 145.611C21.793 145.345 22.0361 145.14 22.431 144.981C22.8336 144.821 23.259 144.738 23.7148 144.738C24.1173 144.738 24.4819 144.814 24.801 144.973C25.12 145.125 25.3099 145.383 25.3631 145.733C25.4011 146.097 25.4314 146.394 25.439 146.614C25.5606 146.188 25.7429 145.839 25.9859 145.573C26.229 145.307 26.5101 145.102 26.8139 144.981C27.1177 144.859 27.4368 144.791 27.7558 144.791C28.2343 144.791 28.6597 144.927 29.0243 145.193C29.3889 145.459 29.5788 145.831 29.6016 146.31C29.6016 146.72 29.4877 147.138 29.2522 147.571C29.0167 148.004 28.7281 148.369 28.3863 148.665C28.0444 148.961 27.7026 149.113 27.3608 149.113C27.019 149.113 26.7455 148.946 26.5177 148.612C26.4037 148.46 26.2518 148.391 26.0695 148.391C25.9708 148.391 25.8796 148.422 25.7809 148.475C25.6897 148.536 25.6061 148.627 25.553 148.756C25.4922 148.885 25.4618 149.067 25.4618 149.288V149.402C25.4846 149.857 25.4998 150.344 25.515 150.868L25.5378 152.41C25.5378 152.63 25.4466 152.82 25.2643 152.972C25.082 153.131 24.8466 153.253 24.5579 153.336C24.2693 153.42 23.973 153.458 23.654 153.458H23.6768Z" fill="#ADD6F1"/>
<path d="M31.5231 146.773C30.9306 146.637 30.4597 146.378 30.1103 145.983C29.7685 145.596 29.5938 145.224 29.5938 144.882C29.5938 144.662 29.6621 144.487 29.8064 144.35C29.9432 144.213 30.171 144.137 30.4673 144.13C30.6344 144.13 30.8015 144.183 30.9762 144.289C31.1509 144.396 31.3028 144.563 31.4472 144.798C31.8194 144.206 32.2523 143.91 32.7537 143.91C33.0347 143.91 33.2474 143.986 33.3841 144.13C33.5209 144.274 33.5968 144.456 33.5968 144.669C33.5968 144.905 33.5209 145.155 33.3613 145.429C33.2094 145.702 32.9739 145.961 32.6701 146.196C32.3663 146.439 31.9789 146.629 31.5231 146.781V146.773ZM31.4016 153.496C30.9003 153.496 30.5281 153.428 30.2926 153.291C30.0571 153.154 29.928 152.903 29.9052 152.546C29.8596 151.924 29.8368 151.255 29.8368 150.541C29.8368 149.607 29.8748 148.688 29.9432 147.791C29.9584 147.647 30.1027 147.518 30.3837 147.411C30.6648 147.305 31.0674 147.244 31.6067 147.244C32.146 147.244 32.5562 147.29 32.8448 147.389C33.1335 147.48 33.2854 147.624 33.2854 147.806L33.3006 148.482C33.3234 149.159 33.331 149.926 33.331 150.792C33.331 151.399 33.3234 152.037 33.3006 152.698C33.3006 152.941 33.1411 153.139 32.8372 153.283C32.5334 153.428 32.0548 153.504 31.4092 153.504L31.4016 153.496Z" fill="#ADD6F1"/>
<path d="M36.294 153.458C35.9977 153.458 35.7091 153.412 35.428 153.329C35.147 153.245 34.9191 153.109 34.7368 152.926C34.5545 152.744 34.4481 152.508 34.4254 152.227C34.281 150.283 34.2051 148.65 34.2051 147.328C34.2051 146.568 34.2431 145.991 34.3266 145.611C34.4178 145.345 34.6608 145.14 35.0558 144.981C35.4584 144.821 35.8838 144.738 36.3319 144.738C36.7421 144.738 37.1067 144.814 37.4258 144.973C37.7448 145.125 37.9347 145.383 37.9879 145.733C38.0258 146.097 38.0562 146.394 38.0638 146.614C38.155 146.386 38.2993 146.158 38.5044 145.93C38.7095 145.702 38.945 145.505 39.2032 145.345C39.4615 145.186 39.7197 145.102 39.9628 145.102C40.9655 145.133 41.6643 145.725 42.0593 146.872C42.3631 147.746 42.515 148.87 42.515 150.26C42.515 150.89 42.4999 151.43 42.4619 151.893L42.4467 152.235C42.4315 152.683 42.3024 152.995 42.0517 153.162C41.801 153.336 41.3757 153.42 40.7756 153.42C40.4717 153.42 40.2059 153.397 39.9704 153.352C39.7349 153.306 39.545 153.207 39.4083 153.048C39.2716 152.888 39.1956 152.653 39.1804 152.334C39.1576 151.232 39.1348 150.214 39.1273 149.28C39.1197 149.052 39.0665 148.885 38.9753 148.779C38.8842 148.672 38.7778 148.619 38.6563 148.619C38.5196 148.619 38.3904 148.68 38.2765 148.802C38.1626 148.923 38.1018 149.098 38.1018 149.318V149.386C38.1474 150.268 38.1702 151.156 38.1778 152.045V152.402C38.1778 152.622 38.0942 152.812 37.9119 152.964C37.7296 153.124 37.4941 153.245 37.2055 153.329C36.9168 153.412 36.6206 153.45 36.3016 153.45L36.294 153.458Z" fill="#ADD6F1"/>
<path d="M47.5118 153.344C46.4787 153.329 45.6356 153.124 44.9671 152.736C44.2987 152.349 43.805 151.84 43.4783 151.21C43.1593 150.579 42.9922 149.911 42.9922 149.204C42.9922 148.642 43.0909 148.08 43.296 147.533C43.5011 146.986 43.7898 146.492 44.1848 146.052C44.5721 145.611 45.0583 145.262 45.628 144.996C46.1977 144.73 46.8585 144.601 47.5953 144.601C48.5448 144.601 49.3652 144.867 50.064 145.391C50.1856 145.497 50.2463 145.649 50.2463 145.847C50.2463 146.112 50.1552 146.416 49.9653 146.758C49.7754 147.1 49.5551 147.396 49.2816 147.647C49.0158 147.898 48.7499 148.027 48.4993 148.027C48.4005 148.027 48.3094 148.004 48.2334 147.958C47.884 147.776 47.5725 147.685 47.2839 147.685C46.8737 147.7 46.5547 147.829 46.3344 148.072C46.1141 148.315 46.0002 148.596 46.0002 148.915C46.0002 149.159 46.0761 149.386 46.2281 149.592C46.4711 149.918 46.9041 150.078 47.5118 150.078C47.7928 150.078 48.0815 150.055 48.3701 150.009C48.6664 149.964 48.955 149.933 49.2437 149.926C49.426 149.926 49.5779 149.987 49.6994 150.108C49.8209 150.23 49.9121 150.397 49.9729 150.594C50.0336 150.799 50.064 151.012 50.064 151.247C50.064 151.642 49.9729 152.03 49.7982 152.41C49.6234 152.782 49.35 153.033 48.993 153.147C48.4917 153.283 47.9979 153.352 47.5118 153.352V153.344Z" fill="#ADD6F1"/>
<path d="M56.8554 153.42C56.506 153.42 56.187 153.382 55.8983 153.306C55.6097 153.23 55.4274 153.116 55.359 152.964C55.3362 152.865 55.321 152.767 55.3134 152.668V152.562C54.6602 153.002 53.9234 153.23 53.103 153.238C52.5257 153.238 52.0396 153.109 51.6522 152.858C51.2648 152.607 50.9762 152.273 50.7787 151.878C50.5812 151.483 50.4824 151.058 50.4824 150.617C50.4824 150.207 50.566 149.804 50.7407 149.424C50.9154 149.045 51.1737 148.718 51.5231 148.452C51.9864 148.103 52.6169 147.928 53.4069 147.928C53.8474 147.928 54.2728 147.974 54.683 148.072C54.4399 147.822 54.1817 147.639 53.9158 147.533C53.6499 147.427 53.3689 147.373 53.0878 147.373C52.7232 147.373 52.3282 147.434 51.9257 147.556C51.8497 147.571 51.7813 147.579 51.713 147.579C51.5231 147.579 51.356 147.51 51.2268 147.373C51.0977 147.237 50.9989 147.062 50.9306 146.849C50.8622 146.637 50.8318 146.416 50.8318 146.196C50.8318 145.93 50.8774 145.695 50.961 145.482C51.0445 145.269 51.1813 145.133 51.356 145.064C52.3662 144.745 53.2701 144.593 54.0525 144.593C55.5489 144.593 56.6655 145.133 57.4099 146.204C58.1088 147.206 58.4582 148.619 58.4582 150.442C58.4582 151.225 58.3898 152.068 58.2607 152.964C58.2151 153.116 58.048 153.223 57.7745 153.306C57.4935 153.382 57.1896 153.42 56.8478 153.42H56.8554ZM54.2652 150.731C54.5083 150.731 54.8349 150.655 55.2375 150.511C55.2223 149.979 55.2147 149.652 55.2147 149.531C55.116 149.516 55.0172 149.508 54.9261 149.508C54.6602 149.508 54.4323 149.554 54.2424 149.637C54.0525 149.721 53.9082 149.827 53.8019 149.956C53.7031 150.078 53.6499 150.199 53.6499 150.321C53.6499 150.427 53.6955 150.526 53.7943 150.609C53.893 150.693 54.0449 150.731 54.2576 150.731H54.2652Z" fill="#ADD6F1"/>
<path d="M61.2764 153.458C60.9801 153.458 60.6915 153.412 60.4104 153.329C60.1294 153.245 59.9015 153.109 59.7192 152.926C59.5369 152.744 59.4306 152.508 59.4078 152.227C59.2635 150.268 59.1875 148.619 59.1875 147.29C59.1875 146.545 59.2255 145.983 59.3014 145.611C59.3926 145.345 59.6357 145.14 60.0307 144.981C60.4332 144.821 60.8586 144.738 61.3144 144.738C61.717 144.738 62.0816 144.814 62.4006 144.973C62.7196 145.125 62.9095 145.383 62.9627 145.733C63.0007 146.097 63.031 146.394 63.0386 146.614C63.1602 146.188 63.3425 145.839 63.5856 145.573C63.8286 145.307 64.1097 145.102 64.4135 144.981C64.7174 144.859 65.0364 144.791 65.3554 144.791C65.834 144.791 66.2593 144.927 66.6239 145.193C66.9885 145.459 67.1784 145.831 67.2012 146.31C67.2012 146.72 67.0873 147.138 66.8518 147.571C66.6163 148.004 66.3277 148.369 65.9859 148.665C65.6441 148.961 65.3022 149.113 64.9604 149.113C64.6186 149.113 64.3452 148.946 64.1173 148.612C64.0033 148.46 63.8514 148.391 63.6691 148.391C63.5704 148.391 63.4792 148.422 63.3805 148.475C63.2893 148.536 63.2058 148.627 63.1526 148.756C63.0918 148.885 63.0614 149.067 63.0614 149.288V149.402C63.0842 149.857 63.0994 150.344 63.1146 150.868L63.1374 152.41C63.1374 152.63 63.0462 152.82 62.8639 152.972C62.6816 153.131 62.4462 153.253 62.1575 153.336C61.8689 153.42 61.5726 153.458 61.2536 153.458H61.2764Z" fill="#ADD6F1"/>
<path d="M75.2442 153.344C74.2111 153.329 73.368 153.124 72.6996 152.736C72.0311 152.349 71.5374 151.84 71.2107 151.21C70.8917 150.579 70.7246 149.911 70.7246 149.204C70.7246 148.642 70.8234 148.08 71.0284 147.533C71.2335 146.986 71.5222 146.492 71.9172 146.052C72.3046 145.611 72.7907 145.262 73.3604 144.996C73.9301 144.73 74.5909 144.601 75.3278 144.601C76.2772 144.601 77.0976 144.867 77.7964 145.391C77.918 145.497 77.9787 145.649 77.9787 145.847C77.9787 146.112 77.8876 146.416 77.6977 146.758C77.5078 147.1 77.2875 147.396 77.0141 147.647C76.7482 147.898 76.4823 148.027 76.2317 148.027C76.1329 148.027 76.0418 148.004 75.9658 147.958C75.6164 147.776 75.305 147.685 75.0163 147.685C74.6061 147.7 74.2871 147.829 74.0668 148.072C73.8465 148.315 73.7326 148.596 73.7326 148.915C73.7326 149.159 73.8086 149.386 73.9605 149.592C74.2036 149.918 74.6365 150.078 75.2442 150.078C75.5252 150.078 75.8139 150.055 76.1025 150.009C76.3988 149.964 76.6874 149.933 76.9761 149.926C77.1584 149.926 77.3103 149.987 77.4318 150.108C77.5534 150.23 77.6445 150.397 77.7053 150.594C77.7661 150.799 77.7964 151.012 77.7964 151.247C77.7964 151.642 77.7053 152.03 77.5306 152.41C77.3559 152.782 77.0824 153.033 76.7254 153.147C76.2241 153.283 75.7303 153.352 75.2442 153.352V153.344Z" fill="#F3987D"/>
<path d="M81.9744 153.42C81.306 153.42 80.7287 153.298 80.2274 153.048C79.7336 152.797 79.3158 152.47 78.9816 152.045C78.6474 151.627 78.4043 151.156 78.2372 150.632C78.0701 150.108 77.9941 149.576 77.9941 149.022C77.9941 148.467 78.0777 147.928 78.2448 147.404C78.4119 146.88 78.6626 146.401 78.9892 145.983C79.3234 145.566 79.7336 145.224 80.2349 144.981C80.7287 144.73 81.3136 144.608 81.9744 144.608C82.6353 144.608 83.2353 144.73 83.7367 144.981C84.238 145.231 84.6558 145.558 84.99 145.976C85.3242 146.386 85.5749 146.857 85.742 147.381C85.9091 147.905 85.9927 148.437 85.9927 148.984C85.9927 149.531 85.9091 150.078 85.742 150.602C85.5749 151.134 85.3242 151.604 84.9824 152.03C84.6482 152.455 84.2304 152.789 83.7291 153.04C83.2278 153.291 82.6429 153.42 81.9744 153.42ZM81.982 150.419C82.2783 150.419 82.5441 150.283 82.7796 150.017C83.0151 149.751 83.1442 149.356 83.1594 148.839C83.1594 148.482 83.1062 148.194 82.9999 147.958C82.8935 147.723 82.7568 147.548 82.5897 147.434C82.4226 147.32 82.2479 147.259 82.058 147.259C81.7693 147.259 81.5111 147.396 81.2756 147.67C81.0401 147.943 80.9186 148.361 80.9034 148.915C80.9034 149.25 80.9566 149.531 81.0553 149.759C81.1617 149.979 81.2908 150.146 81.4503 150.26C81.6098 150.374 81.7845 150.427 81.9668 150.427L81.982 150.419Z" fill="#F3987D"/>
<path d="M88.6364 153.458C88.3478 153.458 88.0667 153.412 87.8009 153.329C87.535 153.245 87.3147 153.109 87.14 152.926C86.9653 152.744 86.8666 152.508 86.8438 152.227C86.707 150.23 86.6387 148.581 86.6387 147.29C86.6387 146.545 86.6767 145.983 86.745 145.611C86.8286 145.345 87.064 145.14 87.4514 144.981C87.8388 144.821 88.249 144.738 88.682 144.738C89.0694 144.738 89.4188 144.814 89.7302 144.973C90.0417 145.133 90.2164 145.383 90.2619 145.733C90.2999 146.097 90.3303 146.394 90.3379 146.614C90.4215 146.386 90.5582 146.158 90.7557 145.93C90.9532 145.702 91.1735 145.505 91.4241 145.345C91.6748 145.186 91.9179 145.102 92.1457 145.102C92.6319 145.117 93.0345 145.269 93.3459 145.558C93.6649 145.847 93.908 146.204 94.0751 146.652C94.3865 146.211 94.736 145.847 95.1234 145.55C95.5107 145.254 95.845 145.11 96.1184 145.11C97.0755 145.14 97.7364 145.733 98.1162 146.887C98.4048 147.761 98.5491 148.885 98.5491 150.252C98.5491 150.89 98.5339 151.453 98.4959 151.924L98.4808 152.243C98.4732 152.691 98.344 153.002 98.1086 153.169C97.8731 153.336 97.4629 153.428 96.8856 153.428C96.597 153.428 96.3463 153.405 96.1184 153.359C95.8905 153.314 95.7082 153.215 95.5791 153.055C95.45 152.896 95.374 152.66 95.3588 152.341C95.3208 151.263 95.3057 150.245 95.3057 149.288C95.3057 149.052 95.2601 148.862 95.1613 148.726C95.0626 148.589 94.9562 148.52 94.8423 148.52C94.736 148.52 94.6448 148.589 94.5537 148.718C94.4701 148.855 94.4245 149.067 94.4245 149.356C94.4321 149.827 94.4473 150.26 94.4701 150.663C94.5005 151.111 94.5157 151.521 94.5157 151.908V152.227C94.5005 152.676 94.3713 152.987 94.1359 153.154C93.8928 153.329 93.4902 153.412 92.9129 153.412C92.6243 153.412 92.3736 153.39 92.1457 153.344C91.9179 153.298 91.7356 153.2 91.6064 153.04C91.4773 152.881 91.4013 152.645 91.3861 152.326C91.3634 151.506 91.3406 150.488 91.333 149.272C91.3254 149.045 91.2722 148.877 91.1886 148.771C91.0975 148.665 90.9987 148.612 90.8848 148.612C90.7557 148.612 90.6341 148.672 90.5202 148.794C90.4063 148.915 90.3531 149.09 90.3531 149.31V149.379C90.3911 150.184 90.4139 151.012 90.4215 151.863V152.387C90.4215 152.607 90.3379 152.797 90.1632 152.949C89.9885 153.109 89.7606 153.23 89.4872 153.314C89.2137 153.397 88.9251 153.435 88.6288 153.435L88.6364 153.458Z" fill="#F3987D"/>
<path d="M104.817 155C104.513 155 104.224 154.954 103.951 154.871C103.677 154.787 103.442 154.651 103.267 154.468C103.085 154.286 102.978 154.05 102.956 153.769C102.918 153.245 102.864 152.296 102.796 150.921C102.728 149.546 102.697 148.308 102.697 147.199C102.697 146.363 102.728 145.778 102.796 145.429C102.88 145.178 103.107 144.973 103.48 144.829C103.852 144.684 104.262 144.608 104.703 144.608C105.06 144.608 105.386 144.662 105.698 144.776C106.009 144.889 106.229 145.072 106.359 145.315V145.292C106.791 144.844 107.331 144.616 107.976 144.616C108.44 144.616 108.85 144.715 109.215 144.92C109.572 145.125 109.883 145.391 110.141 145.733C110.4 146.074 110.597 146.454 110.726 146.872C110.855 147.29 110.931 147.723 110.931 148.156C110.931 148.566 110.871 148.961 110.741 149.341C110.612 149.721 110.415 150.062 110.141 150.366C109.875 150.67 109.526 150.913 109.108 151.088C108.69 151.27 108.182 151.354 107.589 151.354C107.293 151.354 106.981 151.331 106.64 151.278C106.662 152.227 106.693 153.109 106.723 153.921C106.723 154.157 106.632 154.347 106.45 154.506C106.267 154.666 106.032 154.787 105.743 154.871C105.455 154.954 105.158 155 104.839 155H104.817ZM106.989 149.326C107.202 149.326 107.369 149.28 107.506 149.181C107.642 149.083 107.741 148.953 107.802 148.801C107.863 148.65 107.9 148.49 107.9 148.323C107.9 148.095 107.84 147.89 107.726 147.708C107.612 147.525 107.452 147.434 107.247 147.434C107.042 147.434 106.807 147.548 106.526 147.784L106.564 149.265C106.723 149.31 106.867 149.333 106.989 149.333V149.326Z" fill="#F5A325"/>
<path d="M113.597 153.458C113.3 153.458 113.012 153.412 112.731 153.329C112.45 153.245 112.222 153.109 112.04 152.926C111.857 152.744 111.751 152.508 111.728 152.227C111.584 150.268 111.508 148.619 111.508 147.29C111.508 146.545 111.546 145.983 111.622 145.611C111.713 145.345 111.956 145.14 112.351 144.981C112.754 144.821 113.179 144.738 113.635 144.738C114.037 144.738 114.402 144.814 114.721 144.973C115.04 145.125 115.23 145.383 115.283 145.733C115.321 146.097 115.351 146.394 115.359 146.614C115.48 146.188 115.663 145.839 115.906 145.573C116.149 145.307 116.43 145.102 116.734 144.981C117.038 144.859 117.357 144.791 117.676 144.791C118.154 144.791 118.58 144.927 118.944 145.193C119.309 145.459 119.499 145.831 119.522 146.31C119.522 146.72 119.408 147.138 119.172 147.571C118.937 148.004 118.648 148.369 118.306 148.665C117.964 148.961 117.623 149.113 117.281 149.113C116.939 149.113 116.665 148.946 116.438 148.612C116.324 148.46 116.172 148.391 115.989 148.391C115.891 148.391 115.8 148.422 115.701 148.475C115.61 148.536 115.526 148.627 115.473 148.756C115.412 148.885 115.382 149.067 115.382 149.288V149.402C115.405 149.857 115.42 150.344 115.435 150.868L115.458 152.41C115.458 152.63 115.367 152.82 115.184 152.972C115.002 153.131 114.766 153.253 114.478 153.336C114.189 153.42 113.893 153.458 113.574 153.458H113.597Z" fill="#F5A325"/>
<path d="M123.494 153.42C122.826 153.42 122.248 153.298 121.747 153.048C121.253 152.797 120.835 152.47 120.501 152.045C120.167 151.627 119.924 151.156 119.757 150.632C119.59 150.108 119.514 149.576 119.514 149.022C119.514 148.467 119.597 147.928 119.764 147.404C119.931 146.88 120.182 146.401 120.509 145.983C120.843 145.566 121.253 145.224 121.754 144.981C122.248 144.73 122.833 144.608 123.494 144.608C124.155 144.608 124.755 144.73 125.256 144.981C125.758 145.231 126.175 145.558 126.51 145.976C126.844 146.386 127.094 146.857 127.262 147.381C127.429 147.905 127.512 148.437 127.512 148.984C127.512 149.531 127.429 150.078 127.262 150.602C127.094 151.134 126.844 151.604 126.502 152.03C126.168 152.455 125.75 152.789 125.249 153.04C124.747 153.291 124.162 153.42 123.494 153.42ZM123.509 150.419C123.805 150.419 124.071 150.283 124.307 150.017C124.542 149.751 124.671 149.356 124.687 148.839C124.687 148.482 124.633 148.194 124.527 147.958C124.421 147.723 124.284 147.548 124.117 147.434C123.95 147.32 123.775 147.259 123.585 147.259C123.296 147.259 123.038 147.396 122.803 147.67C122.567 147.943 122.446 148.361 122.431 148.915C122.431 149.25 122.484 149.531 122.582 149.759C122.689 149.979 122.818 150.146 122.977 150.26C123.137 150.374 123.312 150.427 123.494 150.427L123.509 150.419Z" fill="#F5A325"/>
<path d="M130.301 155C129.997 155 129.708 154.954 129.435 154.871C129.162 154.787 128.926 154.651 128.751 154.468C128.569 154.286 128.463 154.05 128.44 153.769C128.402 153.245 128.349 152.296 128.28 150.921C128.212 149.546 128.182 148.308 128.182 147.199C128.182 146.363 128.212 145.778 128.28 145.429C128.364 145.178 128.592 144.973 128.964 144.829C129.336 144.684 129.746 144.608 130.187 144.608C130.544 144.608 130.871 144.662 131.182 144.776C131.493 144.889 131.714 145.072 131.843 145.315V145.292C132.276 144.844 132.815 144.616 133.461 144.616C133.924 144.616 134.334 144.715 134.699 144.92C135.056 145.125 135.367 145.391 135.626 145.733C135.884 146.074 136.081 146.454 136.211 146.872C136.34 147.29 136.416 147.723 136.416 148.156C136.416 148.566 136.355 148.961 136.226 149.341C136.097 149.721 135.899 150.062 135.626 150.366C135.36 150.67 135.01 150.913 134.593 151.088C134.175 151.27 133.666 151.354 133.073 151.354C132.777 151.354 132.466 151.331 132.124 151.278C132.147 152.227 132.177 153.109 132.207 153.921C132.207 154.157 132.116 154.347 131.934 154.506C131.752 154.666 131.516 154.787 131.228 154.871C130.939 154.954 130.643 155 130.324 155H130.301ZM132.473 149.326C132.686 149.326 132.853 149.28 132.99 149.181C133.127 149.083 133.225 148.953 133.286 148.801C133.347 148.65 133.385 148.49 133.385 148.323C133.385 148.095 133.324 147.89 133.21 147.708C133.096 147.525 132.937 147.434 132.732 147.434C132.527 147.434 132.291 147.548 132.01 147.784L132.048 149.265C132.207 149.31 132.352 149.333 132.473 149.333V149.326Z" fill="#F5A325"/>
<path d="M140.859 153.42C140.191 153.42 139.613 153.298 139.112 153.048C138.618 152.797 138.201 152.47 137.866 152.045C137.532 151.627 137.289 151.156 137.122 150.632C136.955 150.108 136.879 149.576 136.879 149.022C136.879 148.467 136.962 147.928 137.13 147.404C137.297 146.88 137.547 146.401 137.874 145.983C138.208 145.566 138.618 145.224 139.12 144.981C139.613 144.73 140.198 144.608 140.859 144.608C141.52 144.608 142.12 144.73 142.621 144.981C143.123 145.231 143.541 145.558 143.875 145.976C144.209 146.386 144.46 146.857 144.627 147.381C144.794 147.905 144.877 148.437 144.877 148.984C144.877 149.531 144.794 150.078 144.627 150.602C144.46 151.134 144.209 151.604 143.867 152.03C143.533 152.455 143.115 152.789 142.614 153.04C142.113 153.291 141.528 153.42 140.859 153.42ZM140.874 150.419C141.171 150.419 141.436 150.283 141.672 150.017C141.907 149.751 142.037 149.356 142.052 148.839C142.052 148.482 141.999 148.194 141.892 147.958C141.786 147.723 141.649 147.548 141.482 147.434C141.315 147.32 141.14 147.259 140.95 147.259C140.662 147.259 140.403 147.396 140.168 147.67C139.932 147.943 139.811 148.361 139.796 148.915C139.796 149.25 139.849 149.531 139.948 149.759C140.054 149.979 140.183 150.146 140.343 150.26C140.502 150.374 140.677 150.427 140.859 150.427L140.874 150.419ZM140.677 143.628C140.533 143.628 140.396 143.575 140.267 143.469C140.13 143.363 140.024 143.233 139.94 143.082C139.857 142.93 139.811 142.785 139.811 142.656C139.811 142.55 139.849 142.466 139.917 142.39C140.335 142.011 140.654 141.699 140.874 141.448C141.095 141.198 141.398 140.909 141.771 140.582C141.839 140.529 141.915 140.506 141.999 140.506C142.143 140.506 142.295 140.575 142.454 140.704C142.614 140.833 142.751 140.985 142.857 141.16C142.963 141.334 143.024 141.486 143.024 141.608C143.024 141.729 142.842 141.965 142.47 142.299C141.976 142.747 141.467 143.165 140.95 143.545C140.859 143.606 140.768 143.636 140.677 143.636V143.628Z" fill="#F5A325"/>
<path d="M148.568 153.42C147.664 153.42 146.852 153.26 146.13 152.941C145.879 152.812 145.689 152.6 145.568 152.296C145.439 151.992 145.378 151.665 145.378 151.316C145.378 151.02 145.424 150.738 145.515 150.473C145.606 150.207 145.743 149.986 145.917 149.812C146.1 149.645 146.32 149.553 146.593 149.553C146.662 149.553 146.73 149.553 146.806 149.576C146.882 149.591 147.004 149.622 147.171 149.667C147.391 149.728 147.642 149.789 147.923 149.857C148.204 149.926 148.462 149.956 148.697 149.956C148.842 149.956 148.971 149.933 149.085 149.888C149.199 149.842 149.26 149.766 149.275 149.652C149.275 149.576 149.191 149.515 149.024 149.455C148.857 149.402 148.637 149.341 148.378 149.28C148.082 149.212 147.763 149.12 147.414 149.014C147.072 148.908 146.738 148.771 146.426 148.596C146.115 148.422 145.857 148.209 145.651 147.951C145.446 147.692 145.348 147.366 145.348 146.978V146.804C145.408 146.295 145.651 145.877 146.077 145.558C146.502 145.231 147.034 144.996 147.672 144.844C148.31 144.692 148.956 144.616 149.624 144.616C150.422 144.616 151.143 144.722 151.781 144.927C152.427 145.132 152.822 145.436 152.974 145.824C153.012 145.945 153.035 146.09 153.035 146.257C153.035 146.447 153.012 146.659 152.959 146.88C152.913 147.1 152.837 147.313 152.746 147.51C152.655 147.708 152.533 147.867 152.404 147.996C152.268 148.125 152.108 148.186 151.933 148.186C151.819 148.186 151.667 148.148 151.47 148.08C151.272 148.011 151.06 147.935 150.832 147.844C150.604 147.753 150.384 147.677 150.179 147.601C149.974 147.533 149.814 147.495 149.693 147.487C149.594 147.487 149.518 147.503 149.472 147.533C149.427 147.563 149.404 147.609 149.404 147.654C149.404 147.746 149.48 147.837 149.624 147.92C149.867 148.042 150.148 148.163 150.475 148.277C150.84 148.399 151.204 148.551 151.561 148.733C151.918 148.915 152.214 149.158 152.457 149.462C152.701 149.766 152.822 150.169 152.837 150.67C152.837 151.141 152.716 151.551 152.465 151.901C152.214 152.25 151.888 152.531 151.485 152.751C151.075 152.972 150.619 153.139 150.118 153.245C149.617 153.352 149.1 153.405 148.584 153.405L148.568 153.42Z" fill="#F5A325"/>
<path d="M155.359 146.773C154.767 146.637 154.296 146.378 153.946 145.983C153.604 145.596 153.43 145.224 153.43 144.882C153.43 144.662 153.498 144.487 153.642 144.35C153.779 144.213 154.007 144.137 154.303 144.13C154.47 144.13 154.637 144.183 154.812 144.289C154.987 144.396 155.139 144.563 155.283 144.798C155.655 144.206 156.088 143.91 156.59 143.91C156.871 143.91 157.083 143.986 157.22 144.13C157.357 144.274 157.433 144.456 157.433 144.669C157.433 144.905 157.357 145.155 157.197 145.429C157.045 145.702 156.81 145.961 156.506 146.196C156.202 146.439 155.815 146.629 155.359 146.781V146.773ZM155.245 153.496C154.744 153.496 154.372 153.428 154.136 153.291C153.901 153.154 153.772 152.903 153.749 152.546C153.703 151.924 153.68 151.255 153.68 150.541C153.68 149.607 153.718 148.688 153.787 147.791C153.802 147.647 153.946 147.518 154.227 147.411C154.508 147.305 154.911 147.244 155.45 147.244C155.99 147.244 156.4 147.29 156.688 147.389C156.977 147.48 157.129 147.624 157.129 147.806L157.144 148.482C157.167 149.159 157.174 149.926 157.174 150.792C157.174 151.399 157.167 152.037 157.144 152.698C157.144 152.941 156.985 153.139 156.681 153.283C156.377 153.428 155.898 153.504 155.253 153.504L155.245 153.496Z" fill="#F5A325"/>
<path d="M161.642 153.519C161.049 153.519 160.503 153.42 160.016 153.215C159.53 153.01 159.135 152.691 158.847 152.265C158.634 151.931 158.467 151.544 158.353 151.096C158.239 150.647 158.155 150.138 158.117 149.569C158.079 148.999 158.057 148.384 158.057 147.708C158.057 146.781 158.072 145.824 158.11 144.844C158.133 144.51 158.292 144.305 158.581 144.236C158.847 144.168 159.128 144.13 159.439 144.13H159.72C160.077 144.13 160.381 144.145 160.624 144.183C161.156 144.282 161.437 144.517 161.467 144.89C161.475 145.125 161.482 145.376 161.49 145.642C161.49 145.907 161.505 146.234 161.513 146.614C161.725 146.614 161.961 146.614 162.212 146.599H162.333C162.5 146.599 162.637 146.652 162.751 146.758C162.857 146.865 162.941 147.001 162.994 147.161C163.047 147.32 163.078 147.503 163.078 147.685C163.078 147.958 163.009 148.217 162.88 148.445C162.751 148.68 162.553 148.802 162.295 148.824H162.12C161.847 148.824 161.596 148.817 161.368 148.786V148.999V149.485V150.108C161.368 150.344 161.368 150.511 161.384 150.617C161.422 150.792 161.467 150.921 161.536 150.997C161.604 151.073 161.672 151.111 161.748 151.111C161.87 151.111 161.976 151.042 162.082 150.913C162.189 150.784 162.257 150.632 162.295 150.45C162.333 150.268 162.47 150.154 162.705 150.093C162.948 150.04 163.214 150.009 163.511 150.009H163.784C163.906 150.009 164.019 150.009 164.126 150.032C164.232 150.055 164.323 150.108 164.407 150.184C164.483 150.26 164.544 150.382 164.582 150.541C164.635 150.784 164.658 151.004 164.658 151.21C164.658 151.612 164.574 151.962 164.399 152.25C164.225 152.539 163.997 152.782 163.708 152.972C163.419 153.162 163.1 153.298 162.736 153.39C162.371 153.481 162.007 153.526 161.634 153.526L161.642 153.519Z" fill="#F5A325"/>
<path d="M168.773 153.42C168.105 153.42 167.528 153.298 167.026 153.048C166.532 152.797 166.115 152.47 165.78 152.045C165.446 151.627 165.203 151.156 165.036 150.632C164.869 150.108 164.793 149.576 164.793 149.022C164.793 148.467 164.877 147.928 165.044 147.404C165.211 146.88 165.461 146.401 165.788 145.983C166.122 145.566 166.532 145.224 167.034 144.981C167.528 144.73 168.112 144.608 168.773 144.608C169.434 144.608 170.034 144.73 170.536 144.981C171.037 145.231 171.455 145.558 171.789 145.976C172.123 146.386 172.374 146.857 172.541 147.381C172.708 147.905 172.792 148.437 172.792 148.984C172.792 149.531 172.708 150.078 172.541 150.602C172.374 151.134 172.123 151.604 171.781 152.03C171.447 152.455 171.029 152.789 170.528 153.04C170.027 153.291 169.442 153.42 168.773 153.42ZM168.781 150.419C169.077 150.419 169.343 150.283 169.578 150.017C169.814 149.751 169.943 149.356 169.958 148.839C169.958 148.482 169.905 148.194 169.799 147.958C169.692 147.723 169.556 147.548 169.389 147.434C169.221 147.32 169.047 147.259 168.857 147.259C168.568 147.259 168.31 147.396 168.074 147.67C167.839 147.943 167.717 148.361 167.702 148.915C167.702 149.25 167.755 149.531 167.854 149.759C167.96 149.979 168.09 150.146 168.249 150.26C168.409 150.374 168.583 150.427 168.766 150.427L168.781 150.419Z" fill="#F5A325"/>
<path d="M180.845 153.412C180.108 153.412 179.47 153.291 178.923 153.048C178.376 152.805 177.928 152.486 177.563 152.076C177.199 151.673 176.933 151.21 176.758 150.701C176.583 150.192 176.492 149.668 176.492 149.128C176.492 148.369 176.659 147.647 176.994 146.956C177.328 146.264 177.821 145.702 178.482 145.269C179.143 144.836 179.956 144.593 180.928 144.555C181.574 144.555 182.144 144.707 182.645 145.019C183.146 145.33 183.541 145.74 183.83 146.264C184.119 146.781 184.263 147.358 184.263 147.996C184.263 148.118 184.263 148.247 184.24 148.369C184.217 148.581 184.134 148.771 183.989 148.923C183.845 149.075 183.663 149.166 183.442 149.181C183.131 149.204 182.82 149.212 182.501 149.212C182.113 149.212 181.718 149.204 181.331 149.189C180.936 149.174 180.548 149.166 180.161 149.166C179.948 149.166 179.781 149.212 179.667 149.303C179.553 149.394 179.493 149.5 179.493 149.614C179.493 149.721 179.538 149.835 179.637 149.933C179.736 150.04 179.888 150.123 180.093 150.199C180.298 150.268 180.556 150.306 180.875 150.306C181.224 150.306 181.589 150.26 181.976 150.161C182.364 150.063 182.728 149.964 183.063 149.85H183.093C183.192 149.85 183.321 149.926 183.48 150.101C183.64 150.268 183.777 150.488 183.898 150.739C184.02 150.997 184.088 151.255 184.088 151.513C184.088 151.741 184.02 151.946 183.883 152.136C183.518 152.569 183.055 152.888 182.485 153.101C181.916 153.306 181.376 153.412 180.852 153.412H180.845ZM180.062 147.579C180.419 147.563 180.776 147.556 181.133 147.556H181.779V147.541C181.779 147.244 181.688 147.016 181.506 146.857C181.323 146.697 181.126 146.614 180.905 146.614C180.7 146.614 180.51 146.69 180.343 146.849C180.176 147.009 180.085 147.244 180.062 147.579Z" fill="#9CCEA6"/>
<path d="M194.312 153.42C193.963 153.42 193.644 153.382 193.355 153.306C193.067 153.23 192.884 153.116 192.816 152.964C192.793 152.865 192.778 152.767 192.77 152.668V152.562C192.117 153.002 191.38 153.23 190.56 153.238C189.983 153.238 189.497 153.109 189.109 152.858C188.722 152.607 188.433 152.273 188.236 151.878C188.038 151.483 187.939 151.058 187.939 150.617C187.939 150.207 188.023 149.804 188.198 149.424C188.372 149.045 188.631 148.718 188.98 148.452C189.443 148.103 190.074 147.928 190.864 147.928C191.304 147.928 191.73 147.974 192.14 148.072C191.897 147.822 191.639 147.639 191.373 147.533C191.107 147.427 190.826 147.373 190.545 147.373C190.18 147.373 189.785 147.434 189.383 147.556C189.307 147.571 189.238 147.579 189.17 147.579C188.98 147.579 188.813 147.51 188.684 147.373C188.555 147.237 188.456 147.062 188.388 146.849C188.319 146.637 188.289 146.416 188.289 146.196C188.289 145.93 188.334 145.695 188.418 145.482C188.502 145.269 188.638 145.133 188.813 145.064C189.823 144.745 190.727 144.593 191.51 144.593C193.006 144.593 194.123 145.133 194.867 146.204C195.566 147.206 195.915 148.619 195.915 150.442C195.915 151.225 195.847 152.068 195.718 152.964C195.672 153.116 195.505 153.223 195.232 153.306C194.951 153.382 194.647 153.42 194.305 153.42H194.312ZM191.722 150.731C191.965 150.731 192.292 150.655 192.695 150.511C192.679 149.979 192.672 149.652 192.672 149.531C192.573 149.516 192.474 149.508 192.383 149.508C192.117 149.508 191.889 149.554 191.699 149.637C191.51 149.721 191.365 149.827 191.259 149.956C191.16 150.078 191.107 150.199 191.107 150.321C191.107 150.427 191.153 150.526 191.251 150.609C191.35 150.693 191.502 150.731 191.715 150.731H191.722Z" fill="#F3A5BA"/>
<path d="M198.656 153.458C198.367 153.458 198.086 153.412 197.82 153.329C197.555 153.245 197.334 153.109 197.16 152.926C196.985 152.744 196.886 152.508 196.863 152.227C196.727 150.23 196.658 148.581 196.658 147.29C196.658 146.545 196.696 145.983 196.765 145.611C196.848 145.345 197.084 145.14 197.471 144.981C197.858 144.821 198.269 144.738 198.702 144.738C199.089 144.738 199.438 144.814 199.75 144.973C200.061 145.133 200.236 145.383 200.281 145.733C200.319 146.097 200.35 146.394 200.357 146.614C200.441 146.386 200.578 146.158 200.775 145.93C200.973 145.702 201.193 145.505 201.444 145.345C201.694 145.186 201.937 145.102 202.165 145.102C202.651 145.117 203.054 145.269 203.365 145.558C203.684 145.847 203.928 146.204 204.095 146.652C204.406 146.211 204.755 145.847 205.143 145.55C205.53 145.254 205.865 145.11 206.138 145.11C207.095 145.14 207.756 145.733 208.136 146.887C208.424 147.761 208.569 148.885 208.569 150.252C208.569 150.89 208.553 151.453 208.515 151.924L208.5 152.243C208.493 152.691 208.364 153.002 208.128 153.169C207.893 153.336 207.482 153.428 206.905 153.428C206.617 153.428 206.366 153.405 206.138 153.359C205.91 153.314 205.728 153.215 205.599 153.055C205.47 152.896 205.394 152.66 205.378 152.341C205.34 151.263 205.325 150.245 205.325 149.288C205.325 149.052 205.28 148.862 205.181 148.726C205.082 148.589 204.976 148.52 204.862 148.52C204.755 148.52 204.664 148.589 204.573 148.718C204.49 148.855 204.444 149.067 204.444 149.356C204.452 149.827 204.467 150.26 204.49 150.663C204.52 151.111 204.535 151.521 204.535 151.908V152.227C204.52 152.676 204.391 152.987 204.155 153.154C203.912 153.329 203.51 153.412 202.932 153.412C202.644 153.412 202.393 153.39 202.165 153.344C201.937 153.298 201.755 153.2 201.626 153.04C201.497 152.881 201.421 152.645 201.406 152.326C201.383 151.506 201.36 150.488 201.352 149.272C201.345 149.045 201.292 148.877 201.208 148.771C201.117 148.665 201.018 148.612 200.904 148.612C200.775 148.612 200.654 148.672 200.54 148.794C200.426 148.915 200.373 149.09 200.373 149.31V149.379C200.411 150.184 200.433 151.012 200.441 151.863V152.387C200.441 152.607 200.357 152.797 200.183 152.949C200.008 153.109 199.78 153.23 199.507 153.314C199.233 153.397 198.945 153.435 198.648 153.435L198.656 153.458Z" fill="#F3A5BA"/>
<path d="M213.066 153.42C212.398 153.42 211.82 153.298 211.319 153.048C210.825 152.797 210.408 152.47 210.073 152.045C209.739 151.627 209.496 151.156 209.329 150.632C209.162 150.108 209.086 149.576 209.086 149.022C209.086 148.467 209.169 147.928 209.337 147.404C209.504 146.88 209.754 146.401 210.081 145.983C210.415 145.566 210.825 145.224 211.327 144.981C211.82 144.73 212.405 144.608 213.066 144.608C213.727 144.608 214.327 144.73 214.828 144.981C215.33 145.231 215.748 145.558 216.082 145.976C216.416 146.386 216.667 146.857 216.834 147.381C217.001 147.905 217.084 148.437 217.084 148.984C217.084 149.531 217.001 150.078 216.834 150.602C216.667 151.134 216.416 151.604 216.074 152.03C215.74 152.455 215.322 152.789 214.821 153.04C214.32 153.291 213.735 153.42 213.066 153.42ZM213.074 150.419C213.37 150.419 213.636 150.283 213.871 150.017C214.107 149.751 214.236 149.356 214.251 148.839C214.251 148.482 214.198 148.194 214.092 147.958C213.985 147.723 213.849 147.548 213.681 147.434C213.514 147.32 213.34 147.259 213.15 147.259C212.861 147.259 212.603 147.396 212.367 147.67C212.132 147.943 212.01 148.361 211.995 148.915C211.995 149.25 212.048 149.531 212.147 149.759C212.253 149.979 212.383 150.146 212.542 150.26C212.702 150.374 212.876 150.427 213.059 150.427L213.074 150.419Z" fill="#F3A5BA"/>
<path d="M219.812 153.458C219.515 153.458 219.227 153.412 218.946 153.329C218.665 153.245 218.437 153.109 218.254 152.926C218.072 152.744 217.966 152.508 217.943 152.227C217.799 150.268 217.723 148.619 217.723 147.29C217.723 146.545 217.761 145.983 217.837 145.611C217.928 145.345 218.171 145.14 218.566 144.981C218.968 144.821 219.394 144.738 219.85 144.738C220.252 144.738 220.617 144.814 220.936 144.973C221.255 145.125 221.445 145.383 221.498 145.733C221.536 146.097 221.566 146.394 221.574 146.614C221.695 146.188 221.878 145.839 222.121 145.573C222.364 145.307 222.645 145.102 222.949 144.981C223.253 144.859 223.572 144.791 223.891 144.791C224.369 144.791 224.794 144.927 225.159 145.193C225.524 145.459 225.714 145.831 225.736 146.31C225.736 146.72 225.622 147.138 225.387 147.571C225.151 148.004 224.863 148.369 224.521 148.665C224.179 148.961 223.837 149.113 223.496 149.113C223.154 149.113 222.88 148.946 222.652 148.612C222.538 148.46 222.387 148.391 222.204 148.391C222.106 148.391 222.014 148.422 221.916 148.475C221.824 148.536 221.741 148.627 221.688 148.756C221.627 148.885 221.597 149.067 221.597 149.288V149.402C221.619 149.857 221.635 150.344 221.65 150.868L221.673 152.41C221.673 152.63 221.581 152.82 221.399 152.972C221.217 153.131 220.981 153.253 220.693 153.336C220.404 153.42 220.108 153.458 219.789 153.458H219.812Z" fill="#F3A5BA"/>
<path d="M12.3965 77.7621L46.715 79.9954" stroke="#ADD6F1" stroke-width="2" stroke-miterlimit="10"/>
<path d="M38.8828 58.6804L55.442 67.6971" stroke="#FEC931" stroke-width="2" stroke-miterlimit="10"/>
<path d="M43.2734 34.912L66.6386 55.1026" stroke="#9CCEA6" stroke-width="2" stroke-miterlimit="10"/>
<path d="M68.334 28.4249L77.282 39.6521" stroke="#F5A325" stroke-width="2" stroke-miterlimit="10"/>
<path d="M79.9395 7.93042L90.2396 32.0027" stroke="#F3A5BA" stroke-width="2" stroke-miterlimit="10"/>
<path d="M124.536 0.12915L119.09 30.8025" stroke="#B0DEED" stroke-width="2" stroke-miterlimit="10"/>
<path d="M102.971 16.7495L104.885 29.5339" stroke="#9CCEA6" stroke-width="2" stroke-miterlimit="10"/>
<path d="M141.93 21.52L136.324 35.3223" stroke="#F3987D" stroke-width="2" stroke-miterlimit="10"/>
<path d="M147.141 49.4587L176.856 25.7966" stroke="#ADD6F1" stroke-width="2" stroke-miterlimit="10"/>
<path d="M162.189 63.9978L178.285 59.2958" stroke="#9CCEA6" stroke-width="2" stroke-miterlimit="10"/>
<path d="M172.049 84.2112L212.057 82.4413" stroke="#FEC931" stroke-width="2" stroke-miterlimit="10"/>
<path d="M90.5433 69.2847C95.1237 72.9309 100.927 74.9362 106.806 74.6324C112.685 74.3285 118.079 71.9054 122.241 67.925C123.305 66.9071 121.694 65.2967 120.631 66.3146C116.909 69.8696 111.956 72.0801 106.806 72.3535C101.656 72.627 96.2706 70.9482 92.1536 67.6743C91.0142 66.7703 89.3963 68.3731 90.5433 69.2847Z" fill="white"/>
<path d="M98.1633 61.6506C98.8974 61.6506 99.4926 61.0554 99.4926 60.3213C99.4926 59.5871 98.8974 58.9919 98.1633 58.9919C97.4291 58.9919 96.834 59.5871 96.834 60.3213C96.834 61.0554 97.4291 61.6506 98.1633 61.6506Z" fill="white" stroke="white" stroke-miterlimit="10"/>
<path d="M114.814 61.3847C115.548 61.3847 116.143 60.7896 116.143 60.0554C116.143 59.3212 115.548 58.7261 114.814 58.7261C114.08 58.7261 113.484 59.3212 113.484 60.0554C113.484 60.7896 114.08 61.3847 114.814 61.3847Z" fill="white" stroke="white" stroke-miterlimit="10"/>
</g>
<defs>
<clipPath id="clip0_11_219">
<rect width="228" height="155" fill="white"/>
</clipPath>
</defs>
</svg>
