<svg width="78" height="58" viewBox="0 0 78 58" fill="none" xmlns="http://www.w3.org/2000/svg">
<path d="M7.3125 0C3.27539 0 0 3.2474 0 7.25C0 9.53073 1.08164 11.6755 2.925 13.05L34.6125 36.6125C37.2176 38.5458 40.7824 38.5458 43.3875 36.6125L75.075 13.05C76.9184 11.6755 78 9.53073 78 7.25C78 3.2474 74.7246 0 70.6875 0H7.3125ZM0 19.9375V48.3333C0 53.6651 4.37227 58 9.75 58H68.25C73.6277 58 78 53.6651 78 48.3333V19.9375L47.775 42.4125C42.5801 46.2792 35.4199 46.2792 30.225 42.4125L0 19.9375Z" fill="black"/>
</svg>
