<svg width="126" height="126" viewBox="0 0 126 126" fill="none" xmlns="http://www.w3.org/2000/svg">
<g filter="url(#filter0_d_24_29)">
<path d="M63.012 31.3102C47.7125 31.262 35.2802 43.6489 35.232 58.9518C35.1838 74.2547 47.568 86.6898 62.8675 86.738C78.167 86.7862 90.5993 74.3993 90.6475 59.0964C90.6957 43.7935 78.3115 31.3584 63.012 31.3102ZM62.8675 41.0462C72.7941 40.998 80.8655 49.023 80.9137 58.9518C80.9619 68.8806 72.9386 76.9538 63.012 77.002C53.0854 77.0502 45.0141 69.0252 44.9659 59.0964C44.9177 49.1676 52.9409 41.0944 62.8675 41.0462ZM85.371 30.1775C85.371 26.6108 88.2622 23.719 91.8281 23.719C95.394 23.719 98.2852 26.6108 98.2852 30.1775C98.2852 33.7442 95.394 36.6361 91.8281 36.6361C88.2622 36.6361 85.371 33.7442 85.371 30.1775ZM116.621 36.7325C116.211 28.0809 114.235 20.4174 107.899 14.1034C101.586 7.78947 93.9243 5.81334 85.2746 5.37956C76.36 4.87348 49.64 4.87348 40.7254 5.37956C32.0998 5.78924 24.438 7.76537 18.1014 14.0793C11.7648 20.3933 9.81316 28.0568 9.37948 36.7084C8.87351 45.625 8.87351 72.3509 9.37948 81.2675C9.78907 89.9191 11.7648 97.5826 18.1014 103.897C24.438 110.211 32.0757 112.187 40.7254 112.62C49.64 113.127 76.36 113.127 85.2746 112.62C93.9243 112.211 101.586 110.235 107.899 103.897C114.211 97.5826 116.187 89.9191 116.621 81.2675C117.126 72.3509 117.126 45.6491 116.621 36.7325ZM105.104 90.8349C103.224 95.5583 99.5863 99.1973 94.8398 101.101C87.7322 103.921 70.8666 103.27 63.012 103.27C55.1575 103.27 38.2678 103.897 31.1843 101.101C26.4619 99.2214 22.8238 95.5824 20.9204 90.8349C18.1014 83.7256 18.7519 66.8563 18.7519 59C18.7519 51.1437 18.1255 34.2502 20.9204 27.1651C22.7997 22.4417 26.4378 18.8027 31.1843 16.8989C38.2919 14.0793 55.1575 14.73 63.012 14.73C70.8666 14.73 87.7563 14.1034 94.8398 16.8989C99.5622 18.7786 103.2 22.4176 105.104 27.1651C107.923 34.2743 107.272 51.1437 107.272 59C107.272 66.8563 107.923 83.7497 105.104 90.8349Z" fill="black"/>
</g>
<defs>
<filter id="filter0_d_24_29" x="0" y="0" width="126" height="126" filterUnits="userSpaceOnUse" color-interpolation-filters="sRGB">
<feFlood flood-opacity="0" result="BackgroundImageFix"/>
<feColorMatrix in="SourceAlpha" type="matrix" values="0 0 0 0 0 0 0 0 0 0 0 0 0 0 0 0 0 0 127 0" result="hardAlpha"/>
<feOffset dy="4"/>
<feGaussianBlur stdDeviation="4.5"/>
<feComposite in2="hardAlpha" operator="out"/>
<feColorMatrix type="matrix" values="0 0 0 0 0 0 0 0 0 0 0 0 0 0 0 0 0 0 0.45 0"/>
<feBlend mode="normal" in2="BackgroundImageFix" result="effect1_dropShadow_24_29"/>
<feBlend mode="normal" in="SourceGraphic" in2="effect1_dropShadow_24_29" result="shape"/>
</filter>
</defs>
</svg>
